<svg xmlns="http://www.w3.org/2000/svg" width="128" height="128" viewBox="0 0 128 128" role="img" aria-label="AOCA isotipo bicolor"><title>AOCA isotipo bicolor</title><rect x="14" y="14" width="100" height="100" rx="24" fill="none" stroke="#A78BFA" stroke-width="3"/><g transform="translate(64,66) scale(0.9)"><g fill="#FFFFFF"><ellipse cx="-18" cy="-2" rx="15" ry="30"/><circle cx="-11" cy="-28" r="8"/><circle cx="-19" cy="-31" r="9"/><circle cx="-28" cy="-24" r="9"/><circle cx="-32" cy="-13" r="8.5"/><circle cx="-33" cy="-1" r="8.5"/><circle cx="-31" cy="11" r="8.5"/><circle cx="-26" cy="21" r="9"/><circle cx="-17" cy="27" r="9"/><circle cx="-9" cy="22" r="6"/></g><g transform="scale(-1,1)" fill="#A78BFA"><ellipse cx="-18" cy="-2" rx="15" ry="30"/><circle cx="-11" cy="-28" r="8"/><circle cx="-19" cy="-31" r="9"/><circle cx="-28" cy="-24" r="9"/><circle cx="-32" cy="-13" r="8.5"/><circle cx="-33" cy="-1" r="8.5"/><circle cx="-31" cy="11" r="8.5"/><circle cx="-26" cy="21" r="9"/><circle cx="-17" cy="27" r="9"/><circle cx="-9" cy="22" r="6"/></g></g><path d="M 0 -1 Q 0.14 -0.14 1 0 Q 0.14 0.14 0 1 Q -0.14 0.14 -1 0 Q -0.14 -0.14 0 -1 Z" transform="translate(113,29) scale(11)" fill="#C4B5FD"/></svg>