<svg xmlns="http://www.w3.org/2000/svg" width="240" height="112" viewBox="0 0 240 112" role="img" aria-label="AOCA lockup horizontal negro"><title>AOCA lockup horizontal negro</title><rect x="16" y="28" width="64" height="64" rx="16" fill="none" stroke="#141118" stroke-width="2.5"/><g transform="translate(48,61) scale(0.64)"><g fill="#141118"><ellipse cx="-18" cy="-2" rx="15" ry="30"/><circle cx="-11" cy="-28" r="8"/><circle cx="-19" cy="-31" r="9"/><circle cx="-28" cy="-24" r="9"/><circle cx="-32" cy="-13" r="8.5"/><circle cx="-33" cy="-1" r="8.5"/><circle cx="-31" cy="11" r="8.5"/><circle cx="-26" cy="21" r="9"/><circle cx="-17" cy="27" r="9"/><circle cx="-9" cy="22" r="6"/></g><g transform="scale(-1,1)" fill="#141118"><ellipse cx="-18" cy="-2" rx="15" ry="30"/><circle cx="-11" cy="-28" r="8"/><circle cx="-19" cy="-31" r="9"/><circle cx="-28" cy="-24" r="9"/><circle cx="-32" cy="-13" r="8.5"/><circle cx="-33" cy="-1" r="8.5"/><circle cx="-31" cy="11" r="8.5"/><circle cx="-26" cy="21" r="9"/><circle cx="-17" cy="27" r="9"/><circle cx="-9" cy="22" r="6"/></g></g><path d="M 0 -1 Q 0.14 -0.14 1 0 Q 0.14 0.14 0 1 Q -0.14 0.14 -1 0 Q -0.14 -0.14 0 -1 Z" transform="translate(80,42) scale(7)" fill="#141118"/><path d="M115.00 65.42 111.21 46.24 100.79 65.42Q100.75 65.50 100.74 65.57Q100.73 65.64 100.73 65.70Q100.73 66.14 101.56 66.18Q102.39 66.22 103.56 66.28Q103.93 66.32 104.05 66.51Q104.16 66.69 104.18 67.00Q104.16 67.22 103.98 67.61Q103.79 68.00 103.46 68.00H94.61Q94.30 68.00 94.19 67.61Q94.09 67.22 94.11 67.00Q94.11 66.55 94.25 66.44Q94.40 66.32 94.81 66.28Q95.30 66.22 95.99 66.21Q96.68 66.20 97.36 65.92Q98.03 65.64 98.44 64.78L112.02 39.88H113.83L119.24 64.78Q119.48 65.64 119.99 65.92Q120.51 66.20 121.08 66.21Q121.64 66.22 122.02 66.28Q122.41 66.34 122.55 66.45Q122.70 66.55 122.70 67.00Q122.68 67.22 122.49 67.61Q122.31 68.00 121.98 68.00H112.09Q111.76 68.00 111.62 67.61Q111.47 67.22 111.49 67.00Q111.45 66.36 112.15 66.28Q113.38 66.20 114.21 66.17Q115.04 66.14 115.04 65.64Q115.04 65.58 115.00 65.42ZM103.56 59.27 104.07 57.55H114.73L115.00 59.27Z" fill="#141118"/><path d="M150.83 55.50Q150.83 59.37 149.30 62.30Q147.77 65.24 144.92 66.80Q142.07 68.35 138.28 68.35Q132.44 68.35 129.13 64.92Q125.81 61.48 125.81 55.50Q125.81 49.54 129.12 46.20Q132.42 42.86 138.31 42.86Q144.20 42.86 147.51 46.24Q150.83 49.61 150.83 55.50ZM145.54 55.50Q145.54 51.49 143.64 49.22Q141.74 46.94 138.31 46.94Q134.83 46.94 132.93 49.20Q131.03 51.46 131.03 55.50Q131.03 59.58 132.98 61.93Q134.92 64.27 138.28 64.27Q141.76 64.27 143.65 61.99Q145.54 59.70 145.54 55.50Z M167.81 64.27Q172.51 64.27 174.33 59.56L178.85 61.27Q177.39 64.85 174.57 66.60Q171.75 68.35 167.81 68.35Q161.84 68.35 158.58 64.97Q155.31 61.58 155.31 55.50Q155.31 49.40 158.46 46.13Q161.61 42.86 167.58 42.86Q171.94 42.86 174.69 44.61Q177.43 46.36 178.54 49.75L173.96 51.00Q173.38 49.14 171.69 48.04Q169.99 46.94 167.69 46.94Q164.17 46.94 162.35 49.12Q160.54 51.30 160.54 55.50Q160.54 59.77 162.41 62.02Q164.28 64.27 167.81 64.27Z M201.25 68.00 199.05 61.67H189.62L187.42 68.00H182.23L191.27 43.23H197.38L206.38 68.00ZM194.33 47.05 194.22 47.43Q194.04 48.07 193.80 48.88Q193.55 49.68 190.78 57.77H197.89L195.45 50.65L194.70 48.26Z" fill="#141118"/><path d="M 0 -1 Q 0.14 -0.14 1 0 Q 0.14 0.14 0 1 Q -0.14 0.14 -1 0 Q -0.14 -0.14 0 -1 Z" transform="translate(194,28) scale(5.5)" fill="#141118"/><path d="M97.53 86.35Q97.53 84.60 98.47 83.63Q99.41 82.67 101.12 82.67Q102.32 82.67 103.07 83.07Q103.82 83.48 104.22 84.37L103.29 84.65Q102.98 84.03 102.44 83.75Q101.90 83.47 101.10 83.47Q99.85 83.47 99.18 84.22Q98.52 84.98 98.52 86.35Q98.52 87.72 99.23 88.52Q99.93 89.31 101.17 89.31Q101.88 89.31 102.49 89.09Q103.10 88.88 103.48 88.51V87.21H101.32V86.39H104.38V88.88Q103.81 89.46 102.98 89.78Q102.14 90.10 101.17 90.10Q100.04 90.10 99.21 89.65Q98.39 89.20 97.96 88.35Q97.53 87.50 97.53 86.35Z M110.52 90.10Q109.63 90.10 108.97 89.78Q108.31 89.46 107.94 88.84Q107.58 88.23 107.58 87.38V82.78H108.56V87.29Q108.56 88.28 109.06 88.80Q109.56 89.31 110.51 89.31Q111.48 89.31 112.02 88.78Q112.57 88.25 112.57 87.23V82.78H113.54V87.28Q113.54 88.16 113.17 88.80Q112.80 89.43 112.12 89.77Q111.44 90.10 110.52 90.10Z M116.92 90.00V82.78H117.90V90.00ZM116.68 82.16V82.05L117.79 80.89H118.85V81.04L117.26 82.16Z M126.45 90.00 125.62 87.89H122.33L121.50 90.00H120.49L123.44 82.78H124.55L127.45 90.00ZM123.98 83.51 123.93 83.66Q123.80 84.08 123.55 84.75L122.63 87.12H125.33L124.40 84.74Q124.26 84.39 124.12 83.94Z M131.04 88.88V89.74Q131.04 90.28 130.95 90.65Q130.85 91.01 130.64 91.34H130.01Q130.50 90.65 130.50 90.00H130.04V88.88Z M143.65 90.00 139.79 83.85 139.81 84.34 139.84 85.20V90.00H138.97V82.78H140.10L144.01 88.97Q143.95 87.96 143.95 87.51V82.78H144.83V90.00Z M154.95 86.35Q154.95 87.49 154.52 88.34Q154.09 89.19 153.28 89.65Q152.47 90.10 151.36 90.10Q150.25 90.10 149.44 89.65Q148.64 89.20 148.21 88.35Q147.79 87.49 147.79 86.35Q147.79 84.62 148.73 83.65Q149.68 82.67 151.37 82.67Q152.48 82.67 153.29 83.11Q154.10 83.55 154.52 84.38Q154.95 85.22 154.95 86.35ZM153.95 86.35Q153.95 85.01 153.28 84.24Q152.60 83.47 151.37 83.47Q150.13 83.47 149.46 84.23Q148.78 84.99 148.78 86.35Q148.78 87.71 149.46 88.51Q150.15 89.31 151.36 89.31Q152.61 89.31 153.28 88.54Q153.95 87.76 153.95 86.35Z M167.54 90.00 165.66 87.00H163.41V90.00H162.43V82.78H165.83Q167.05 82.78 167.72 83.32Q168.38 83.87 168.38 84.84Q168.38 85.65 167.91 86.20Q167.44 86.74 166.62 86.89L168.67 90.00ZM167.40 84.85Q167.40 84.22 166.97 83.89Q166.54 83.56 165.74 83.56H163.41V86.23H165.78Q166.55 86.23 166.97 85.87Q167.40 85.50 167.40 84.85Z M171.62 90.00V82.78H177.10V83.58H172.60V85.89H176.79V86.68H172.60V89.20H177.31V90.00Z M185.88 88.01Q185.88 89.01 185.10 89.55Q184.32 90.10 182.90 90.10Q180.26 90.10 179.84 88.27L180.78 88.08Q180.95 88.73 181.48 89.03Q182.01 89.34 182.93 89.34Q183.88 89.34 184.40 89.01Q184.91 88.69 184.91 88.06Q184.91 87.70 184.75 87.48Q184.59 87.26 184.30 87.12Q184.00 86.98 183.60 86.88Q183.19 86.78 182.70 86.67Q181.85 86.48 181.40 86.29Q180.96 86.10 180.70 85.87Q180.45 85.63 180.31 85.32Q180.17 85.01 180.17 84.60Q180.17 83.67 180.88 83.17Q181.59 82.67 182.92 82.67Q184.15 82.67 184.80 83.05Q185.45 83.42 185.71 84.33L184.75 84.50Q184.59 83.92 184.14 83.67Q183.70 83.41 182.91 83.41Q182.04 83.41 181.58 83.69Q181.13 83.98 181.13 84.55Q181.13 84.88 181.30 85.10Q181.48 85.32 181.81 85.47Q182.15 85.62 183.14 85.84Q183.48 85.92 183.81 86.00Q184.14 86.08 184.44 86.19Q184.74 86.30 185.01 86.45Q185.27 86.60 185.46 86.81Q185.66 87.03 185.77 87.32Q185.88 87.61 185.88 88.01Z M191.71 90.10Q190.82 90.10 190.16 89.78Q189.50 89.46 189.14 88.84Q188.77 88.23 188.77 87.38V82.78H189.75V87.29Q189.75 88.28 190.25 88.80Q190.76 89.31 191.70 89.31Q192.68 89.31 193.22 88.78Q193.76 88.25 193.76 87.23V82.78H194.73V87.28Q194.73 88.16 194.36 88.80Q193.99 89.43 193.31 89.77Q192.63 90.10 191.71 90.10Z M198.01 90.00V82.78H203.49V83.58H198.99V85.89H203.18V86.68H198.99V89.20H203.70V90.00Z M206.61 90.00V82.78H207.59V89.20H211.24V90.00Z M217.20 90.00H216.18L213.23 82.78H214.26L216.26 87.86L216.69 89.14L217.13 87.86L219.11 82.78H220.15Z M222.65 90.00V82.78H228.13V83.58H223.63V85.89H227.83V86.68H223.63V89.20H228.34V90.00Z" fill="#5F5E5A"/></svg>