<svg xmlns="http://www.w3.org/2000/svg" width="240" height="190" viewBox="0 0 240 190" role="img" aria-label="AOCA lockup vertical"><title>AOCA lockup vertical</title><rect x="84" y="16" width="72" height="72" rx="18" fill="none" stroke="#A78BFA" stroke-width="2.5"/><g transform="translate(120,53) scale(0.72)"><g fill="#FFFFFF"><ellipse cx="-18" cy="-2" rx="15" ry="30"/><circle cx="-11" cy="-28" r="8"/><circle cx="-19" cy="-31" r="9"/><circle cx="-28" cy="-24" r="9"/><circle cx="-32" cy="-13" r="8.5"/><circle cx="-33" cy="-1" r="8.5"/><circle cx="-31" cy="11" r="8.5"/><circle cx="-26" cy="21" r="9"/><circle cx="-17" cy="27" r="9"/><circle cx="-9" cy="22" r="6"/></g><g transform="scale(-1,1)" fill="#FFFFFF"><ellipse cx="-18" cy="-2" rx="15" ry="30"/><circle cx="-11" cy="-28" r="8"/><circle cx="-19" cy="-31" r="9"/><circle cx="-28" cy="-24" r="9"/><circle cx="-32" cy="-13" r="8.5"/><circle cx="-33" cy="-1" r="8.5"/><circle cx="-31" cy="11" r="8.5"/><circle cx="-26" cy="21" r="9"/><circle cx="-17" cy="27" r="9"/><circle cx="-9" cy="22" r="6"/></g></g><path d="M 0 -1 Q 0.14 -0.14 1 0 Q 0.14 0.14 0 1 Q -0.14 0.14 -1 0 Q -0.14 -0.14 0 -1 Z" transform="translate(156,32) scale(8)" fill="#C4B5FD"/><path d="M82.59 137.42 78.80 118.24 68.37 137.42Q68.33 137.50 68.32 137.57Q68.31 137.64 68.31 137.70Q68.31 138.14 69.14 138.18Q69.97 138.22 71.14 138.28Q71.51 138.32 71.63 138.51Q71.75 138.69 71.77 139.00Q71.75 139.22 71.56 139.61Q71.38 140.00 71.04 140.00H62.20Q61.88 140.00 61.78 139.61Q61.67 139.22 61.69 139.00Q61.69 138.55 61.83 138.44Q61.98 138.32 62.39 138.28Q62.88 138.22 63.57 138.21Q64.27 138.20 64.94 137.92Q65.61 137.64 66.02 136.78L79.60 111.88H81.42L86.83 136.78Q87.06 137.64 87.58 137.92Q88.09 138.20 88.66 138.21Q89.23 138.22 89.60 138.28Q89.99 138.34 90.14 138.45Q90.28 138.55 90.28 139.00Q90.26 139.22 90.08 139.61Q89.89 140.00 89.56 140.00H79.68Q79.34 140.00 79.20 139.61Q79.05 139.22 79.07 139.00Q79.03 138.36 79.74 138.28Q80.97 138.20 81.80 138.17Q82.63 138.14 82.63 137.64Q82.63 137.58 82.59 137.42ZM71.14 131.27 71.65 129.55H82.31L82.59 131.27Z" fill="#FFFFFF"/><path d="M118.41 127.50Q118.41 131.37 116.88 134.30Q115.35 137.24 112.50 138.80Q109.66 140.35 105.86 140.35Q100.02 140.35 96.71 136.92Q93.40 133.48 93.40 127.50Q93.40 121.54 96.70 118.20Q100.00 114.86 105.89 114.86Q111.78 114.86 115.10 118.24Q118.41 121.61 118.41 127.50ZM113.12 127.50Q113.12 123.49 111.22 121.22Q109.32 118.94 105.89 118.94Q102.41 118.94 100.51 121.20Q98.62 123.46 98.62 127.50Q98.62 131.58 100.56 133.93Q102.50 136.27 105.86 136.27Q109.34 136.27 111.23 133.99Q113.12 131.70 113.12 127.50Z M135.40 136.27Q140.09 136.27 141.92 131.56L146.43 133.27Q144.98 136.85 142.15 138.60Q139.33 140.35 135.40 140.35Q129.42 140.35 126.16 136.97Q122.90 133.58 122.90 127.50Q122.90 121.40 126.04 118.13Q129.19 114.86 135.17 114.86Q139.53 114.86 142.27 116.61Q145.01 118.36 146.12 121.75L141.55 123.00Q140.97 121.14 139.27 120.04Q137.58 118.94 135.27 118.94Q131.76 118.94 129.94 121.12Q128.12 123.30 128.12 127.50Q128.12 131.77 129.99 134.02Q131.86 136.27 135.40 136.27Z M168.83 140.00 166.64 133.67H157.20L155.00 140.00H149.82L158.85 115.23H164.97L173.97 140.00ZM161.91 119.05 161.80 119.43Q161.63 120.07 161.38 120.88Q161.14 121.68 158.36 129.77H165.48L163.03 122.65L162.28 120.26Z" fill="#FFFFFF"/><path d="M52.71 157.58V164.00H51.73V157.58H49.25V156.78H55.19V157.58Z M60.78 164.10Q59.89 164.10 59.23 163.78Q58.57 163.46 58.20 162.84Q57.84 162.23 57.84 161.38V156.78H58.82V161.29Q58.82 162.28 59.32 162.80Q59.82 163.31 60.77 163.31Q61.74 163.31 62.29 162.78Q62.83 162.25 62.83 161.23V156.78H63.80V161.28Q63.80 162.16 63.43 162.80Q63.06 163.43 62.38 163.77Q61.70 164.10 60.78 164.10Z M69.90 157.58V164.00H68.93V157.58H66.45V156.78H72.38V157.58Z M81.89 160.35Q81.89 161.49 81.46 162.34Q81.02 163.19 80.21 163.65Q79.40 164.10 78.30 164.10Q77.19 164.10 76.38 163.65Q75.57 163.20 75.15 162.35Q74.72 161.49 74.72 160.35Q74.72 158.62 75.67 157.65Q76.62 156.67 78.31 156.67Q79.41 156.67 80.22 157.11Q81.03 157.55 81.46 158.38Q81.89 159.22 81.89 160.35ZM80.89 160.35Q80.89 159.01 80.22 158.24Q79.54 157.47 78.31 157.47Q77.07 157.47 76.39 158.23Q75.72 158.99 75.72 160.35Q75.72 161.71 76.40 162.51Q77.09 163.31 78.30 163.31Q79.55 163.31 80.22 162.54Q80.89 161.76 80.89 160.35Z M89.96 164.00 88.08 161.00H85.83V164.00H84.85V156.78H88.25Q89.47 156.78 90.14 157.32Q90.80 157.87 90.80 158.84Q90.80 159.65 90.33 160.20Q89.86 160.74 89.04 160.89L91.09 164.00ZM89.82 158.85Q89.82 158.22 89.39 157.89Q88.96 157.56 88.15 157.56H85.83V160.23H88.20Q88.97 160.23 89.39 159.87Q89.82 159.50 89.82 158.85Z M98.55 164.00V156.78H104.03V157.58H99.53V159.89H103.73V160.68H99.53V163.20H104.24V164.00Z M113.38 160.31Q113.38 161.43 112.94 162.27Q112.50 163.11 111.70 163.55Q110.90 164.00 109.86 164.00H107.16V156.78H109.55Q111.38 156.78 112.38 157.70Q113.38 158.62 113.38 160.31ZM112.39 160.31Q112.39 158.97 111.66 158.27Q110.92 157.56 109.52 157.56H108.14V163.22H109.75Q110.54 163.22 111.14 162.87Q111.74 162.52 112.07 161.86Q112.39 161.21 112.39 160.31Z M119.23 164.10Q118.34 164.10 117.68 163.78Q117.02 163.46 116.65 162.84Q116.29 162.23 116.29 161.38V156.78H117.27V161.29Q117.27 162.28 117.77 162.80Q118.27 163.31 119.22 163.31Q120.19 163.31 120.74 162.78Q121.28 162.25 121.28 161.23V156.78H122.25V161.28Q122.25 162.16 121.88 162.80Q121.51 163.43 120.83 163.77Q120.15 164.10 119.23 164.10Z M128.72 157.47Q127.52 157.47 126.85 158.24Q126.19 159.01 126.19 160.35Q126.19 161.68 126.88 162.49Q127.58 163.30 128.76 163.30Q130.28 163.30 131.04 161.80L131.84 162.20Q131.40 163.13 130.59 163.62Q129.78 164.10 128.72 164.10Q127.62 164.10 126.83 163.65Q126.03 163.20 125.61 162.35Q125.19 161.51 125.19 160.35Q125.19 158.63 126.13 157.65Q127.06 156.67 128.71 156.67Q129.86 156.67 130.64 157.12Q131.41 157.57 131.78 158.46L130.85 158.77Q130.60 158.13 130.04 157.80Q129.48 157.47 128.72 157.47Z M139.83 164.00 139.00 161.89H135.71L134.88 164.00H133.86L136.81 156.78H137.92L140.83 164.00ZM137.36 157.51 137.31 157.66Q137.18 158.08 136.93 158.75L136.01 161.12H138.71L137.78 158.74Q137.64 158.39 137.49 157.94Z M146.14 157.58V164.00H145.16V157.58H142.68V156.78H148.62V157.58Z M151.43 164.00V156.78H152.41V164.00Z M158.99 164.00H157.97L155.02 156.78H156.05L158.05 161.86L158.48 163.14L158.92 161.86L160.90 156.78H161.93Z M171.25 160.35Q171.25 161.49 170.81 162.34Q170.38 163.19 169.57 163.65Q168.76 164.10 167.66 164.10Q166.54 164.10 165.74 163.65Q164.93 163.20 164.50 162.35Q164.08 161.49 164.08 160.35Q164.08 158.62 165.03 157.65Q165.98 156.67 167.67 156.67Q168.77 156.67 169.58 157.11Q170.39 157.55 170.82 158.38Q171.25 159.22 171.25 160.35ZM170.25 160.35Q170.25 159.01 169.57 158.24Q168.90 157.47 167.67 157.47Q166.43 157.47 165.75 158.23Q165.07 158.99 165.07 160.35Q165.07 161.71 165.76 162.51Q166.44 163.31 167.66 163.31Q168.91 163.31 169.58 162.54Q170.25 161.76 170.25 160.35Z M178.83 164.00V156.78H179.81V164.00Z M188.37 164.00 187.54 161.89H184.25L183.42 164.00H182.40L185.35 156.78H186.46L189.37 164.00ZM185.89 157.51 185.85 157.66Q185.72 158.08 185.47 158.75L184.55 161.12H187.25L186.32 158.74Q186.18 158.39 186.03 157.94Z" fill="#A78BFA"/></svg>