<svg xmlns="http://www.w3.org/2000/svg" width="512" height="512" viewBox="0 0 512 512" role="img" aria-label="AOCA app icon"><title>AOCA app icon</title><rect width="512" height="512" rx="112" fill="#141118"/><g transform="translate(256,264) scale(4.1)"><g fill="#FFFFFF"><ellipse cx="-18" cy="-2" rx="15" ry="30"/><circle cx="-11" cy="-28" r="8"/><circle cx="-19" cy="-31" r="9"/><circle cx="-28" cy="-24" r="9"/><circle cx="-32" cy="-13" r="8.5"/><circle cx="-33" cy="-1" r="8.5"/><circle cx="-31" cy="11" r="8.5"/><circle cx="-26" cy="21" r="9"/><circle cx="-17" cy="27" r="9"/><circle cx="-9" cy="22" r="6"/></g><g transform="scale(-1,1)" fill="#FFFFFF"><ellipse cx="-18" cy="-2" rx="15" ry="30"/><circle cx="-11" cy="-28" r="8"/><circle cx="-19" cy="-31" r="9"/><circle cx="-28" cy="-24" r="9"/><circle cx="-32" cy="-13" r="8.5"/><circle cx="-33" cy="-1" r="8.5"/><circle cx="-31" cy="11" r="8.5"/><circle cx="-26" cy="21" r="9"/><circle cx="-17" cy="27" r="9"/><circle cx="-9" cy="22" r="6"/></g></g><path d="M 0 -1 Q 0.14 -0.14 1 0 Q 0.14 0.14 0 1 Q -0.14 0.14 -1 0 Q -0.14 -0.14 0 -1 Z" transform="translate(400,128) scale(34)" fill="#A78BFA"/></svg>