<svg xmlns="http://www.w3.org/2000/svg" width="960" height="320" viewBox="0 0 960 320" role="img" aria-label="AOCA banner"><title>AOCA banner</title><rect width="960" height="320" fill="#141118"/><rect x="24" y="24" width="912" height="272" fill="none" stroke="#A78BFA" stroke-width="2"/><rect x="96" y="108" width="104" height="104" rx="26" fill="none" stroke="#A78BFA" stroke-width="3"/><g transform="translate(148,163) scale(1.05)"><g fill="#FFFFFF"><ellipse cx="-18" cy="-2" rx="15" ry="30"/><circle cx="-11" cy="-28" r="8"/><circle cx="-19" cy="-31" r="9"/><circle cx="-28" cy="-24" r="9"/><circle cx="-32" cy="-13" r="8.5"/><circle cx="-33" cy="-1" r="8.5"/><circle cx="-31" cy="11" r="8.5"/><circle cx="-26" cy="21" r="9"/><circle cx="-17" cy="27" r="9"/><circle cx="-9" cy="22" r="6"/></g><g transform="scale(-1,1)" fill="#FFFFFF"><ellipse cx="-18" cy="-2" rx="15" ry="30"/><circle cx="-11" cy="-28" r="8"/><circle cx="-19" cy="-31" r="9"/><circle cx="-28" cy="-24" r="9"/><circle cx="-32" cy="-13" r="8.5"/><circle cx="-33" cy="-1" r="8.5"/><circle cx="-31" cy="11" r="8.5"/><circle cx="-26" cy="21" r="9"/><circle cx="-17" cy="27" r="9"/><circle cx="-9" cy="22" r="6"/></g></g><path d="M 0 -1 Q 0.14 -0.14 1 0 Q 0.14 0.14 0 1 Q -0.14 0.14 -1 0 Q -0.14 -0.14 0 -1 Z" transform="translate(198,126) scale(12)" fill="#C4B5FD"/><path d="M281.81 184.33 273.47 142.13 250.53 184.33Q250.44 184.50 250.42 184.65Q250.40 184.80 250.40 184.93Q250.40 185.92 252.22 186.00Q254.05 186.09 256.63 186.22Q257.45 186.30 257.70 186.71Q257.96 187.12 258.00 187.81Q257.96 188.28 257.55 189.14Q257.14 190.00 256.41 190.00H236.95Q236.26 190.00 236.03 189.14Q235.79 188.28 235.83 187.81Q235.83 186.82 236.15 186.56Q236.48 186.30 237.38 186.22Q238.45 186.09 239.98 186.07Q241.50 186.05 242.99 185.42Q244.47 184.80 245.37 182.91L275.23 128.12H279.23L291.13 182.91Q291.65 184.80 292.79 185.42Q293.93 186.05 295.17 186.07Q296.42 186.09 297.23 186.22Q298.09 186.35 298.42 186.58Q298.74 186.82 298.74 187.81Q298.70 188.28 298.29 189.14Q297.88 190.00 297.15 190.00H275.41Q274.68 190.00 274.35 189.14Q274.03 188.28 274.07 187.81Q273.99 186.39 275.54 186.22Q278.24 186.05 280.07 185.98Q281.89 185.92 281.89 184.80Q281.89 184.67 281.81 184.33ZM256.63 170.79 257.75 167.01H281.21L281.81 170.79Z" fill="#FFFFFF"/><path d="M358.67 162.57Q358.67 171.06 355.31 177.50Q351.96 183.94 345.71 187.36Q339.46 190.77 331.13 190.77Q318.32 190.77 311.05 183.23Q303.78 175.69 303.78 162.57Q303.78 149.50 311.03 142.17Q318.28 134.84 331.21 134.84Q344.13 134.84 351.40 142.25Q358.67 149.65 358.67 162.57ZM347.06 162.57Q347.06 153.78 342.89 148.78Q338.73 143.79 331.21 143.79Q323.57 143.79 319.40 148.74Q315.24 153.70 315.24 162.57Q315.24 171.52 319.50 176.67Q323.76 181.82 331.13 181.82Q338.77 181.82 342.91 176.81Q347.06 171.79 347.06 162.57Z M394.15 181.82Q404.45 181.82 408.47 171.48L418.38 175.23Q415.18 183.10 408.99 186.93Q402.79 190.77 394.15 190.77Q381.04 190.77 373.88 183.35Q366.73 175.92 366.73 162.57Q366.73 149.19 373.63 142.01Q380.54 134.84 393.65 134.84Q403.22 134.84 409.24 138.68Q415.25 142.52 417.68 149.96L407.66 152.70Q406.38 148.61 402.66 146.20Q398.94 143.79 393.88 143.79Q386.17 143.79 382.18 148.57Q378.18 153.35 378.18 162.57Q378.18 171.95 382.29 176.88Q386.40 181.82 394.15 181.82Z M465.74 190.00 460.92 176.11H440.21L435.39 190.00H424.01L443.83 135.65H457.26L477.01 190.00ZM450.55 144.02 450.31 144.87Q449.93 146.26 449.39 148.03Q448.85 149.81 442.75 167.55H458.38L453.01 151.93L451.36 146.68Z" fill="#FFFFFF"/><path d="M 0 -1 Q 0.14 -0.14 1 0 Q 0.14 0.14 0 1 Q -0.14 0.14 -1 0 Q -0.14 -0.14 0 -1 Z" transform="translate(457,108) scale(12)" fill="#C4B5FD"/><path d="M244.80 216.45Q244.80 213.77 246.24 212.30Q247.68 210.83 250.28 210.83Q252.11 210.83 253.25 211.45Q254.39 212.06 255.01 213.42L253.59 213.84Q253.12 212.91 252.29 212.48Q251.47 212.05 250.24 212.05Q248.34 212.05 247.33 213.20Q246.32 214.35 246.32 216.45Q246.32 218.53 247.39 219.74Q248.46 220.95 250.35 220.95Q251.43 220.95 252.36 220.62Q253.30 220.29 253.88 219.73V217.74H250.59V216.49H255.25V220.29Q254.38 221.18 253.11 221.67Q251.84 222.16 250.35 222.16Q248.62 222.16 247.38 221.47Q246.12 220.78 245.46 219.49Q244.80 218.20 244.80 216.45Z M263.76 222.16Q262.40 222.16 261.40 221.66Q260.39 221.17 259.83 220.23Q259.28 219.30 259.28 218.00V210.99H260.77V217.88Q260.77 219.38 261.54 220.16Q262.30 220.95 263.75 220.95Q265.23 220.95 266.06 220.14Q266.88 219.33 266.88 217.77V210.99H268.37V217.86Q268.37 219.20 267.80 220.16Q267.23 221.13 266.20 221.64Q265.16 222.16 263.76 222.16Z M272.68 222.00V210.99H274.17V222.00ZM272.31 210.05V209.89L274.00 208.12H275.62V208.35L273.20 210.05Z M286.36 222.00 285.10 218.78H280.09L278.82 222.00H277.28L281.77 210.99H283.46L287.89 222.00ZM282.60 212.12 282.53 212.34Q282.33 212.98 281.95 214.00L280.54 217.62H284.66L283.25 213.98Q283.03 213.45 282.81 212.77Z M292.53 220.29V221.60Q292.53 222.43 292.38 222.98Q292.23 223.54 291.92 224.05H290.95Q291.69 222.98 291.69 222.00H291.00V220.29Z M310.06 222.00 304.17 212.62 304.21 213.38 304.25 214.69V222.00H302.92V210.99H304.65L310.61 220.43Q310.51 218.90 310.51 218.21V210.99H311.86V222.00Z M326.44 216.45Q326.44 218.17 325.78 219.47Q325.12 220.77 323.89 221.46Q322.65 222.16 320.97 222.16Q319.28 222.16 318.05 221.47Q316.82 220.78 316.17 219.48Q315.52 218.18 315.52 216.45Q315.52 213.80 316.97 212.32Q318.41 210.83 320.99 210.83Q322.67 210.83 323.90 211.50Q325.14 212.16 325.79 213.44Q326.44 214.71 326.44 216.45ZM324.92 216.45Q324.92 214.39 323.89 213.22Q322.86 212.05 320.99 212.05Q319.10 212.05 318.07 213.20Q317.04 214.36 317.04 216.45Q317.04 218.52 318.08 219.73Q319.12 220.95 320.97 220.95Q322.88 220.95 323.90 219.77Q324.92 218.59 324.92 216.45Z M343.95 222.00 341.09 217.43H337.66V222.00H336.17V210.99H341.35Q343.20 210.99 344.22 211.82Q345.23 212.66 345.23 214.14Q345.23 215.37 344.51 216.20Q343.80 217.04 342.54 217.26L345.67 222.00ZM343.73 214.16Q343.73 213.20 343.08 212.69Q342.42 212.19 341.20 212.19H337.66V216.25H341.26Q342.44 216.25 343.08 215.70Q343.73 215.15 343.73 214.16Z M349.32 222.00V210.99H357.67V212.21H350.81V215.74H357.20V216.95H350.81V220.78H357.99V222.00Z M370.22 218.96Q370.22 220.48 369.03 221.32Q367.83 222.16 365.67 222.16Q361.65 222.16 361.01 219.36L362.45 219.07Q362.70 220.06 363.51 220.53Q364.33 220.99 365.73 220.99Q367.17 220.99 367.96 220.50Q368.74 220.00 368.74 219.04Q368.74 218.50 368.49 218.16Q368.25 217.83 367.80 217.61Q367.36 217.39 366.74 217.24Q366.12 217.09 365.37 216.92Q364.07 216.63 363.39 216.34Q362.72 216.05 362.33 215.70Q361.94 215.34 361.73 214.87Q361.52 214.39 361.52 213.77Q361.52 212.36 362.60 211.59Q363.69 210.83 365.70 210.83Q367.58 210.83 368.57 211.40Q369.56 211.98 369.96 213.36L368.49 213.62Q368.25 212.74 367.57 212.35Q366.89 211.95 365.69 211.95Q364.37 211.95 363.67 212.39Q362.98 212.83 362.98 213.70Q362.98 214.20 363.24 214.54Q363.51 214.87 364.02 215.10Q364.53 215.33 366.05 215.66Q366.55 215.78 367.06 215.90Q367.56 216.02 368.02 216.19Q368.48 216.36 368.89 216.59Q369.29 216.81 369.58 217.14Q369.88 217.47 370.05 217.91Q370.22 218.36 370.22 218.96Z M378.26 222.16Q376.91 222.16 375.90 221.66Q374.90 221.17 374.34 220.23Q373.79 219.30 373.79 218.00V210.99H375.28V217.88Q375.28 219.38 376.04 220.16Q376.81 220.95 378.25 220.95Q379.74 220.95 380.56 220.14Q381.39 219.33 381.39 217.77V210.99H382.87V217.86Q382.87 219.20 382.31 220.16Q381.74 221.13 380.70 221.64Q379.67 222.16 378.26 222.16Z M387.02 222.00V210.99H395.37V212.21H388.51V215.74H394.90V216.95H388.51V220.78H395.69V222.00Z M399.29 222.00V210.99H400.78V220.78H406.35V222.00Z M414.59 222.00H413.04L408.55 210.99H410.12L413.16 218.74L413.82 220.69L414.48 218.74L417.51 210.99H419.08Z M422.06 222.00V210.99H430.41V212.21H423.55V215.74H429.94V216.95H423.55V220.78H430.73V222.00Z" fill="#A78BFA"/></svg>